<?xml version="1.0" encoding="utf-8"?>
<!-- Generator: Adobe Illustrator 26.1.0, SVG Export Plug-In . SVG Version: 6.00 Build 0)  -->
<svg version="1.1" id="Layer_1" xmlns="http://www.w3.org/2000/svg" xmlns:xlink="http://www.w3.org/1999/xlink" x="0px" y="0px"
	 viewBox="0 0 451.57 456.08" style="enable-background:new 0 0 451.57 456.08;" xml:space="preserve">
<style type="text/css">
	.st0{fill:white;}
</style>
<g>
	<g>
		<path class="st0" d="M44.59,198.24v3.61h-9.03v3.74h8.12v3.45h-8.12v3.76h9.31v3.58H31.52v-18.13H44.59z"/>
		<path class="st0" d="M56.36,201.86c-0.39,0.32-0.58,0.74-0.58,1.27s0.24,0.95,0.71,1.26c0.48,0.31,1.57,0.68,3.29,1.1
			c1.72,0.42,3.06,1.06,4.01,1.91c0.95,0.85,1.43,2.08,1.43,3.71c0,1.63-0.61,2.94-1.83,3.96c-1.22,1.01-2.82,1.52-4.81,1.52
			c-2.87,0-5.46-1.06-7.76-3.19l2.41-2.96c1.95,1.71,3.76,2.57,5.42,2.57c0.74,0,1.33-0.16,1.75-0.48c0.42-0.32,0.64-0.75,0.64-1.3
			c0-0.54-0.22-0.98-0.67-1.3c-0.45-0.32-1.34-0.64-2.67-0.97c-2.11-0.5-3.65-1.15-4.63-1.96c-0.98-0.8-1.47-2.07-1.47-3.79
			c0-1.72,0.62-3.05,1.85-3.98s2.78-1.4,4.63-1.4c1.21,0,2.42,0.21,3.63,0.62c1.21,0.42,2.27,1,3.17,1.76l-2.05,2.96
			c-1.57-1.19-3.2-1.79-4.88-1.79C57.28,201.38,56.75,201.54,56.36,201.86z"/>
		<path class="st0" d="M79.83,201.74v14.63h-4.05v-14.63h-5.14v-3.5h14.32v3.5H79.83z"/>
		<path class="st0" d="M90.03,215.92c-0.44-0.44-0.66-0.98-0.66-1.62c0-0.64,0.22-1.18,0.66-1.62c0.44-0.44,0.98-0.66,1.62-0.66
			c0.64,0,1.18,0.22,1.62,0.66c0.44,0.44,0.66,0.98,0.66,1.62c0,0.64-0.22,1.18-0.66,1.62c-0.44,0.44-0.98,0.66-1.62,0.66
			C91.02,216.58,90.48,216.36,90.03,215.92z"/>
	</g>
	<g>
		<path class="st0" d="M360.19,205.31c0.46-0.65,0.69-1.28,0.69-1.88c0-0.6-0.2-1.11-0.6-1.52c-0.4-0.41-0.91-0.61-1.53-0.61
			c-1.14,0-2.22,0.81-3.24,2.44l-3.24-1.92c0.85-1.31,1.78-2.31,2.79-2.98c1.01-0.67,2.3-1.01,3.87-1.01c1.57,0,2.94,0.5,4.12,1.49
			c1.19,1,1.78,2.35,1.78,4.06c0,0.93-0.24,1.83-0.71,2.69c-0.48,0.86-1.35,1.95-2.63,3.28l-3.27,3.4h7.16v3.63h-12.79v-3.01
			l5.32-5.45C358.96,206.83,359.73,205.96,360.19,205.31z"/>
		<path class="st0" d="M378.83,216.58c-2.51,0-4.38-0.85-5.63-2.56s-1.87-3.98-1.87-6.82c0-2.84,0.62-5.12,1.87-6.82
			c1.25-1.7,3.12-2.56,5.63-2.56c2.51,0,4.38,0.85,5.63,2.56c1.25,1.7,1.87,3.98,1.87,6.82c0,2.84-0.62,5.12-1.87,6.82
			S381.33,216.58,378.83,216.58z M376.15,202.83c-0.57,1.11-0.86,2.57-0.86,4.38s0.29,3.28,0.86,4.38c0.57,1.11,1.46,1.66,2.67,1.66
			s2.1-0.55,2.67-1.66c0.57-1.11,0.86-2.57,0.86-4.38s-0.29-3.28-0.86-4.38c-0.57-1.11-1.46-1.66-2.67-1.66
			S376.72,201.73,376.15,202.83z"/>
		<path class="st0" d="M399.84,216.58c-2.51,0-4.38-0.85-5.63-2.56c-1.24-1.7-1.87-3.98-1.87-6.82c0-2.84,0.62-5.12,1.87-6.82
			c1.25-1.7,3.12-2.56,5.63-2.56c2.51,0,4.39,0.85,5.63,2.56c1.24,1.7,1.87,3.98,1.87,6.82c0,2.84-0.62,5.12-1.87,6.82
			C404.23,215.73,402.35,216.58,399.84,216.58z M397.17,202.83c-0.57,1.11-0.86,2.57-0.86,4.38s0.28,3.28,0.86,4.38
			c0.57,1.11,1.46,1.66,2.67,1.66s2.1-0.55,2.67-1.66c0.57-1.11,0.86-2.57,0.86-4.38s-0.28-3.28-0.86-4.38
			c-0.57-1.11-1.46-1.66-2.67-1.66S397.74,201.73,397.17,202.83z"/>
		<path class="st0" d="M412.71,198.24h7.34v18.13h-3.89v-14.68h-3.45V198.24z"/>
	</g>
	<g>
		<path class="st0" d="M76.04,89.79l5.08,4.56L69.7,107.07l5.26,4.72l10.27-11.44l4.86,4.36l-10.27,11.44l5.3,4.76L96.9,107.8
			l5.04,4.53l-16.9,18.82L59.5,108.21L76.04,89.79z"/>
		<path class="st0" d="M122.17,74.8l6.35-4.37l6.9,10.03c-0.65,5.06-3.46,9.3-8.42,12.71c-4.15,2.86-8.59,3.88-13.3,3.07
			c-4.71-0.81-8.51-3.31-11.4-7.51c-2.89-4.19-3.86-8.68-2.92-13.46c0.94-4.78,3.44-8.57,7.5-11.36c4.06-2.79,8.51-3.89,13.34-3.28
			l-0.02,6.99c-2.03-0.23-3.72-0.19-5.07,0.12c-1.35,0.32-2.65,0.9-3.89,1.75c-2.4,1.65-3.86,3.86-4.39,6.62
			c-0.52,2.76,0.14,5.48,1.97,8.15c1.84,2.67,4.1,4.27,6.78,4.78c2.68,0.52,5.12,0.03,7.3-1.48s3.72-3.17,4.6-5.01L122.17,74.8z"/>
		<path class="st0" d="M167.43,53.8l7.25-2.63l4.15,11.45c-1.91,4.73-5.69,8.12-11.36,10.17c-4.74,1.72-9.29,1.59-13.64-0.39
			c-4.36-1.97-7.4-5.36-9.13-10.14c-1.73-4.79-1.54-9.37,0.58-13.76c2.12-4.39,5.49-7.42,10.13-9.1c4.63-1.68,9.21-1.61,13.73,0.2
			l-1.78,6.76c-1.9-0.74-3.55-1.12-4.94-1.16c-1.39-0.04-2.79,0.2-4.21,0.71c-2.74,0.99-4.71,2.76-5.91,5.3
			c-1.2,2.54-1.25,5.34-0.15,8.39c1.1,3.05,2.89,5.16,5.35,6.34c2.46,1.18,4.94,1.32,7.44,0.41c2.49-0.9,4.4-2.13,5.72-3.69
			L167.43,53.8z"/>
		<path class="st0" d="M216.47,31.16c2.6,1.8,4.1,4.81,4.51,9.03c0.41,4.22-0.52,7.43-2.78,9.62c-2.27,2.2-5.93,3.54-10.98,4.04
			l-4.55,0.45l0.93,9.53l-7.63,0.75l-3.34-34.17l12.07-1.18C209.96,28.71,213.88,29.36,216.47,31.16z M212.19,45.15
			c0.81-1.12,1.12-2.66,0.93-4.63c-0.19-1.97-0.93-3.31-2.2-4.03c-1.27-0.71-3.16-0.95-5.67-0.7l-4.35,0.43l1.12,11.49l5.13-0.5
			C209.7,46.95,211.38,46.26,212.19,45.15z"/>
		<path class="st0" d="M238.09,62.7l4.33-34.06l7.6,0.97l-3.47,27.28l14.52,1.84l-0.86,6.77L238.09,62.7z"/>
		<path class="st0" d="M297.26,77.51l-0.37-8.07l-13.46-5.09l-5.61,5.81l-7.63-2.88l26.01-26.87l6.94,2.62l1.74,37.36L297.26,77.51z
			 M296.09,51.29l-7.57,7.8l8.04,3.04L296.09,51.29z"/>
		<path class="st0" d="M355.48,72.93l6.22,4.48l-20.06,27.86l-6.22-4.48l-0.71-27.01l-12.57,17.46l-6.22-4.48l20.06-27.86l5.82,4.19
			l0.76,27.78L355.48,72.93z"/>
		<path class="st0" d="M384.47,110.48l-21.04,18.02l-4.98-5.82l21.04-18.02l-6.33-7.39l5.04-4.31l17.64,20.59l-5.04,4.31
			L384.47,110.48z"/>
	</g>
	<g>
		<path class="st0" d="M77.9,311.99l-18.1-2.62l-1.24-3.79l13.08-12.76l-17.95,5.86l-2.08-6.37L80.13,283l2.81,8.61l-13.27,12.46
			l18.08,2.27l2.8,8.57l-28.52,9.31l-2.08-6.37L77.9,311.99z"/>
		<path class="st0" d="M83.16,346.08c-0.53,1.7-0.26,3.33,0.79,4.9c1.06,1.57,2.47,2.42,4.23,2.56c1.77,0.14,3.65-0.47,5.64-1.81
			l13.74-9.26l3.74,5.55l-13.92,9.38c-3.61,2.43-7.05,3.3-10.32,2.61c-3.28-0.69-5.96-2.59-8.06-5.7c-2.1-3.11-2.85-6.32-2.25-9.64
			c0.59-3.32,2.68-6.18,6.26-8.6l13.92-9.38l3.74,5.55l-13.74,9.26C84.95,342.86,83.69,344.38,83.16,346.08z"/>
		<path class="st0" d="M121.69,367.39c-0.83-0.04-1.54,0.26-2.13,0.9c-0.59,0.64-0.77,1.42-0.53,2.33c0.23,0.91,1.16,2.59,2.79,5.02
			c1.63,2.44,2.55,4.71,2.77,6.8c0.22,2.1-0.58,4.14-2.4,6.12c-1.81,1.99-4.03,2.92-6.65,2.79c-2.62-0.12-5.14-1.3-7.57-3.52
			c-3.51-3.2-5.48-7.39-5.92-12.55l6.25-0.92c0.48,4.27,1.73,7.33,3.76,9.19c0.91,0.83,1.8,1.29,2.68,1.37
			c0.87,0.08,1.62-0.21,2.22-0.88c0.61-0.67,0.81-1.44,0.62-2.34c-0.19-0.89-0.92-2.28-2.18-4.17c-2.02-2.97-3.17-5.49-3.47-7.56
			c-0.3-2.07,0.52-4.16,2.43-6.26c1.92-2.1,4.16-3.03,6.71-2.79c2.55,0.24,4.96,1.39,7.22,3.46c1.48,1.35,2.73,2.96,3.74,4.81
			c1.01,1.86,1.65,3.75,1.9,5.69l-5.8,1.33c-0.59-3.21-1.91-5.76-3.96-7.63C123.35,367.83,122.52,367.43,121.69,367.39z"/>
		<path class="st0" d="M147.41,380.07l5.71,3.5l-15.69,25.57l-5.71-3.5L147.41,380.07z"/>
		<path class="st0" d="M170.78,417.9c3.11,1.09,6.07,0.75,8.91-1.02l2.59,5.59c-4.48,2.49-8.9,2.98-13.26,1.45
			c-4.36-1.53-7.47-4.16-9.33-7.9c-1.86-3.74-2.05-7.71-0.58-11.91c1.47-4.2,4.13-7.2,7.99-9c3.86-1.8,7.87-1.97,12.03-0.52
			c4.65,1.63,7.91,4.76,9.81,9.39l-5.49,3.08c-1.13-3.18-3.18-5.3-6.15-6.34c-2.38-0.83-4.68-0.77-6.91,0.2
			c-2.23,0.96-3.81,2.76-4.73,5.39c-0.92,2.63-0.87,5.03,0.17,7.18C166.86,415.64,168.51,417.11,170.78,417.9z"/>
		<path class="st0" d="M215.4,427.33l0.14-7.72l-7.51-0.13l0.09-5.28l7.51,0.13l0.14-7.72l5.92,0.1l-0.14,7.72l7.51,0.13l-0.09,5.28
			l-7.51-0.13l-0.14,7.72L215.4,427.33z"/>
		<path class="st0" d="M258.14,403.34c-0.48,0.68-0.61,1.44-0.38,2.28c0.23,0.84,0.79,1.41,1.69,1.7c0.9,0.29,2.81,0.4,5.74,0.33
			c2.93-0.07,5.34,0.36,7.23,1.3c1.89,0.94,3.19,2.71,3.89,5.3c0.71,2.6,0.31,4.97-1.2,7.11c-1.51,2.15-3.85,3.65-7.02,4.52
			c-4.58,1.25-9.17,0.68-13.77-1.72l2.56-5.77c3.86,1.88,7.12,2.46,9.77,1.74c1.19-0.32,2.05-0.83,2.59-1.53
			c0.54-0.69,0.69-1.48,0.45-2.35c-0.24-0.87-0.78-1.46-1.64-1.78c-0.86-0.32-2.42-0.45-4.69-0.39c-3.59,0.12-6.33-0.25-8.24-1.11
			c-1.91-0.86-3.24-2.66-3.99-5.41c-0.75-2.75-0.34-5.13,1.23-7.16s3.83-3.45,6.78-4.25c1.93-0.53,3.95-0.72,6.07-0.59
			c2.11,0.14,4.05,0.62,5.82,1.44l-1.98,5.61c-3.03-1.22-5.89-1.46-8.56-0.73C259.4,402.17,258.62,402.66,258.14,403.34z"/>
		<path class="st0" d="M317.01,400.1c-1.28,4.04-3.88,7.11-7.79,9.2c-3.91,2.09-7.9,2.54-11.97,1.36s-7.14-3.72-9.22-7.61
			c-2.08-3.89-2.47-7.85-1.19-11.89c1.28-4.04,3.88-7.11,7.79-9.2c3.91-2.09,7.9-2.54,11.97-1.36c4.07,1.18,7.14,3.72,9.22,7.61
			C317.89,392.1,318.29,396.06,317.01,400.1z M309.81,391.45c-1.26-2.36-3.09-3.97-5.5-4.83s-4.71-0.7-6.92,0.48
			c-2.21,1.18-3.63,3.01-4.25,5.48c-0.62,2.47-0.31,4.89,0.95,7.25c1.26,2.36,3.09,3.96,5.49,4.81c2.4,0.84,4.7,0.68,6.91-0.5
			c2.21-1.18,3.63-3,4.26-5.46C311.38,396.22,311.07,393.81,309.81,391.45z"/>
		<path class="st0" d="M339.62,379.31c1.75,0.32,3.34-0.14,4.77-1.37c1.43-1.24,2.11-2.74,2.03-4.51c-0.08-1.77-0.9-3.56-2.47-5.38
			l-10.84-12.53l5.06-4.38l10.98,12.69c2.85,3.29,4.12,6.6,3.83,9.94c-0.29,3.34-1.86,6.23-4.69,8.68c-2.84,2.45-5.93,3.58-9.3,3.39
			c-3.36-0.19-6.46-1.92-9.29-5.19l-10.98-12.69l5.06-4.38l10.84,12.53C336.2,377.92,337.87,378.99,339.62,379.31z"/>
		<path class="st0" d="M359.93,324.06l3.92-5.43l24.33,17.55l-3.92,5.43l-23.61,0.59l15.25,11l-3.92,5.43l-24.33-17.55l3.67-5.08
			l24.28-0.64L359.93,324.06z"/>
		<path class="st0" d="M381.97,286.23c3.44-1.78,7.36-1.87,11.73-0.27c4.38,1.61,7.36,4.19,8.96,7.74c1.59,3.56,1.4,8.02-0.57,13.39
			l-3.53,9.63l-28.17-10.33l3.65-9.95C375.89,291.42,378.53,288.02,381.97,286.23z M397.02,296.99c-0.88-2.08-2.71-3.62-5.48-4.64
			c-2.77-1.02-5.18-1.02-7.24-0.03c-2.06,1-3.67,3.1-4.85,6.29l-1.29,3.51l17.13,6.28l1.46-3.99
			C397.82,301.54,397.91,299.07,397.02,296.99z"/>
	</g>
	<g>
		<g>
			<path class="st0" d="M195.4,214.59c-7.89-5.76-13.12-14.61-14.22-24.64c-2.13-19.36,11.9-36.84,31.26-38.97
				c6.82-0.75,13.66,0.52,19.7,3.55l-32.7,32.16l12.18,12.39l46.78-46l-6.88-6.18c-11.15-10.02-26.09-14.83-40.98-13.19
				c-28.88,3.17-49.8,29.25-46.63,58.13c1.53,13.98,8.44,26.41,18.94,35L195.4,214.59z"/>
		</g>
		<g>
			<path class="st0" d="M236.24,256.43c5.16,5.41,8.18,12.41,8.58,19.95c0.44,8.37-2.4,16.4-8.01,22.63
				c-5.6,6.23-13.29,9.91-21.66,10.34c-8.37,0.44-16.4-2.4-22.63-8.01c-4.75-4.28-8.71-11.1-10.2-17.54l3.13-3.28l36.89-37.94
				l63.27-65.3l-12.78-12.38l-63.26,65.29l-42.4,43.89l-2.44,2.83l0,0.44c-0.11,13.91,5.84,27.3,16.32,36.74
				c9.63,8.67,22.06,13.06,35,12.38c0.74-0.04,1.48-0.09,2.21-0.17c12.08-1.18,23.12-6.75,31.29-15.83
				c17.31-19.23,16.25-48.68-1.82-66.77L236.24,256.43z"/>
		</g>
	</g>
</g>
</svg>
